<?xml version="1.0" standalone="no"?>
<!DOCTYPE svg PUBLIC "-//W3C//DTD SVG 1.1//EN" "http://www.w3.org/Graphics/SVG/1.1/DTD/svg11.dtd">
<svg preserveAspectRatio="xMinYMid" viewBox="0 0 46 46" version="1.1" xmlns="http://www.w3.org/2000/svg" xmlns:xlink="http://www.w3.org/1999/xlink" xml:space="preserve" style="fill-rule:evenodd;clip-rule:evenodd;stroke-linejoin:round;stroke-miterlimit:1.41421;">
    <g transform="matrix(1,0,0,1,0.215,0.001)">
        <circle cx="22.785" cy="22.999" r="20.245" style="fill:white;"/>
        <g transform="matrix(0.0799115,1.56135e-32,3.90337e-33,0.0799115,7.02268,7.01381)">
            <path d="M142.9,24.2C97.6,39.7 59,73.6 37.5,116.5C30,131.3 24.6,147 21.3,163.3C13.1,203.7 18.8,246.8 37.4,283.6C49.5,307.6 66.9,329 87.9,345.7C107.8,361.5 130.9,373.3 155.5,379.8C186.5,388.1 219.5,387.9 250.7,380.8C278.9,374.3 305.6,360.8 326.9,341.2C349.4,320.5 365.5,293.3 374,264C383.3,232.1 384.5,198 378.7,165.2C320.4,165.2 262,165.2 203.7,165.2C203.7,189.4 203.7,213.6 203.7,237.8C237.5,237.8 271.3,237.8 305.1,237.8C301.2,261 287.4,282.2 267.9,295.3C255.6,303.6 241.5,308.9 226.9,311.5C212.3,314 197.1,314.3 182.5,311.4C167.6,308.4 153.5,302.2 141.1,293.5C121.3,279.6 106.2,259.3 98.5,236.4C90.6,213.1 90.5,187.2 98.5,164C104.1,147.6 113.3,132.5 125.5,120.1C140.5,104.7 160,93.7 181.1,89.2C199.1,85.4 218.1,86.1 235.7,91.4C250.7,95.9 264.5,104.2 275.8,115C287.2,103.6 298.6,92.2 310,80.8C316,74.7 322.3,68.8 328.1,62.5C310.8,46.5 290.4,33.6 268.2,25.4C228.2,10.6 183.2,10.3 142.9,24.2Z" style="fill:white;fill-rule:nonzero;"/>
            <path d="M142.9,24.2C183.1,10.3 228.2,10.6 268.2,25.3C290.4,33.5 310.7,46.3 328.1,62.4C322.3,68.7 316,74.6 310,80.7C298.6,92.1 287.2,103.5 275.8,114.9C264.5,104.1 250.7,95.9 235.7,91.3C218.1,86 199.1,85.2 181.1,89.1C160.1,93.6 140.6,104.6 125.5,120C113.3,132.3 104.1,147.5 98.5,163.9C78.2,148.1 57.9,132.4 37.5,116.6C59,73.6 97.6,39.7 142.9,24.2Z" style="fill:rgb(234,67,53);fill-rule:nonzero;"/>
            <path d="M21.4,163.2C24.7,147 30.1,131.2 37.6,116.4C57.9,132.2 78.2,147.9 98.6,163.7C90.6,187 90.6,212.9 98.6,236.1C78.3,251.9 58,267.7 37.7,283.4C18.9,246.7 13.2,203.6 21.4,163.2Z" style="fill:rgb(251,188,5);fill-rule:nonzero;"/>
            <path d="M203.7,165.1C262,165.1 320.4,165.1 378.7,165.1C384.5,197.8 383.2,231.9 374,263.9C365.5,293.2 349.4,320.4 326.9,341.1C307.2,325.8 287.5,310.5 267.8,295.2C287.3,282.1 301.1,260.9 305,237.7C271.2,237.7 237.4,237.7 203.6,237.7C203.7,213.5 203.7,189.3 203.7,165.1Z" style="fill:rgb(66,133,244);fill-rule:nonzero;"/>
            <path d="M37.5,283.5C57.8,267.8 78.1,252 98.4,236.2C106.2,259.1 121.2,279.4 141,293.3C153.4,302 167.6,308.2 182.4,311.2C197,314.2 212.1,313.8 226.8,311.3C241.4,308.7 255.5,303.4 267.8,295.1C287.5,310.4 307.2,325.7 326.9,341C305.6,360.7 278.9,374.1 250.7,380.6C219.5,387.7 186.5,387.9 155.5,379.6C130.9,373.1 107.8,361.4 87.9,345.5C67,328.9 49.6,307.5 37.5,283.5Z" style="fill:rgb(52,168,83);fill-rule:nonzero;"/>
        </g>
    </g>
</svg>
