<?xml version="1.0" encoding="utf-8"?>
<!-- Generator: Adobe Illustrator 16.0.0, SVG Export Plug-In . SVG Version: 6.00 Build 0)  -->
<!DOCTYPE svg PUBLIC "-//W3C//DTD SVG 1.1//EN" "http://www.w3.org/Graphics/SVG/1.1/DTD/svg11.dtd">
<svg preserveAspectRatio="xMinYMid" version="1.1" id="Layer_1" xmlns="http://www.w3.org/2000/svg" xmlns:xlink="http://www.w3.org/1999/xlink" x="0px" y="0px"
	 width="45.921px" viewBox="52.04 0 45.921 46" enable-background="new 52.04 0 45.921 46" xml:space="preserve">
<g>
	<g>
		<g>
			<circle fill="#007BB6" cx="75" cy="23" r="20.245"/>
		</g>
	</g>
	<g id="linked-in">
		<path fill="#FFFFFF" d="M69.706,31.796h-4.721V17.891h4.721V31.796z M67.345,15.992h-0.032c-1.584,0-2.608-1.068-2.608-2.401
			c0-1.366,1.056-2.404,2.671-2.404c1.615,0,2.61,1.038,2.64,2.404C70.015,14.924,68.991,15.992,67.345,15.992z M86.729,31.796
			h-4.721v-7.438c0-1.867-0.685-3.144-2.392-3.144c-1.305,0-2.081,0.859-2.422,1.689c-0.124,0.297-0.155,0.713-0.155,1.128v7.765
			h-4.721c0,0,0.062-12.6,0-13.905h4.721v1.97c0.627-0.948,1.747-2.296,4.254-2.296c3.105,0,5.434,1.987,5.434,6.257v7.975
			L86.729,31.796L86.729,31.796z"/>
	</g>
</g>
</svg>
