<?xml version="1.0" standalone="no"?>
<!DOCTYPE svg PUBLIC "-//W3C//DTD SVG 1.1//EN" "http://www.w3.org/Graphics/SVG/1.1/DTD/svg11.dtd">
<svg preserveAspectRatio="xMinYMid" viewBox="0 0 64 64" version="1.1" xmlns="http://www.w3.org/2000/svg" xmlns:xlink="http://www.w3.org/1999/xlink" xml:space="preserve" style="fill-rule:evenodd;clip-rule:evenodd;stroke-linejoin:round;stroke-miterlimit:1.41421;">
    <g transform="matrix(0.942857,0,0,1,0.828514,0)">
        <rect x="14.499" y="21" width="35" height="22" style="fill:white;"/>
    </g>
    <g id="Livello_8" transform="matrix(1,0,0,1,-93.342,-18)">
        <path d="M110.949,60.785L110.949,39.213L139.636,39.213L139.636,60.785L110.949,60.785ZM109.314,49.145C109.785,49.145 110.166,49.528 110.166,49.999C110.166,50.47 109.785,50.853 109.314,50.853C108.839,50.853 108.459,50.47 108.459,49.999C108.459,49.528 108.841,49.145 109.314,49.145M141.494,62.212C141.506,62.211 141.516,62.212 141.528,62.212C142.254,62.212 142.841,61.626 142.841,60.9C142.841,60.888 142.84,60.878 142.839,60.867L142.841,60.867L142.841,39.134L142.839,39.134C142.84,39.123 142.841,39.113 142.841,39.101C142.841,38.374 142.253,37.788 141.528,37.788C141.516,37.788 141.506,37.79 141.494,37.791L141.494,37.788L109.186,37.788L109.186,37.823C109.174,37.823 109.163,37.82 109.151,37.82C108.427,37.82 107.841,38.406 107.841,39.131C107.841,39.142 107.843,39.153 107.843,39.165L107.841,39.165L107.841,60.837L107.843,60.837C107.843,60.849 107.841,60.859 107.841,60.872C107.841,61.597 108.427,62.182 109.151,62.182C109.163,62.182 109.174,62.18 109.186,62.18L109.186,62.214L141.494,62.212Z" style="fill:rgb(68,68,68);fill-rule:nonzero;"/>
    </g>
</svg>
