<?xml version="1.0" encoding="utf-8"?>
<!-- Generator: Adobe Illustrator 16.0.0, SVG Export Plug-In . SVG Version: 6.00 Build 0)  -->
<!DOCTYPE svg PUBLIC "-//W3C//DTD SVG 1.1//EN" "http://www.w3.org/Graphics/SVG/1.1/DTD/svg11.dtd">
<svg preserveAspectRatio="xMinYMid" version="1.1" id="Layer_1" xmlns="http://www.w3.org/2000/svg" xmlns:xlink="http://www.w3.org/1999/xlink" x="0px" y="0px"
	 width="100.156px" height="100.188px" viewBox="0 0 100.156 100.188" enable-background="new 0 0 100.156 100.188"
	 xml:space="preserve">
<g>
	<path fill="#8DC9FF" d="M50.013,0c27.615,0.007,49.996,22.396,49.989,50.013c-0.007,27.613-22.398,49.994-50.013,49.988
		C22.374,99.994-0.007,77.603,0,49.987C0.007,22.374,22.397-0.007,50.013,0z"/>
</g>
<path fill="#FFFFFF" d="M72.151,37.486c-1.634,0.714-3.38,1.19-5.221,1.408c1.88-1.102,3.319-2.853,3.998-4.94
	c-1.755,1.023-3.7,1.767-5.771,2.167c-1.655-1.734-4.02-2.821-6.631-2.821c-5.022,0-9.085,3.999-9.085,8.938
	c0,0.697,0.08,1.383,0.23,2.042c-7.551-0.38-14.243-3.939-18.725-9.343c-0.783,1.32-1.237,2.855-1.237,4.494
	c0,3.098,1.611,5.834,4.045,7.443c-1.487-0.051-2.891-0.452-4.111-1.123c-0.002,0.038-0.002,0.073-0.002,0.113
	c0,4.334,3.132,7.948,7.288,8.769c-0.76,0.199-1.562,0.313-2.395,0.313c-0.584,0-1.151-0.054-1.707-0.158
	c1.153,3.549,4.511,6.134,8.485,6.212c-3.104,2.395-7.025,3.827-11.285,3.827c-0.73,0-1.458-0.041-2.167-0.128
	c4.019,2.535,8.799,4.014,13.931,4.014c16.712,0,25.854-13.622,25.854-25.438c0-0.384-0.013-0.777-0.032-1.153
	C69.39,40.851,70.931,39.278,72.151,37.486z"/>
</svg>
