<?xml version="1.0" encoding="UTF-8" standalone="no"?>
<!DOCTYPE svg PUBLIC "-//W3C//DTD SVG 1.1//EN" "http://www.w3.org/Graphics/SVG/1.1/DTD/svg11.dtd">
<svg width="100%" height="100%" viewBox="0 0 512 512" version="1.1" xmlns="http://www.w3.org/2000/svg" xmlns:xlink="http://www.w3.org/1999/xlink" xml:space="preserve" xmlns:serif="http://www.serif.com/" style="fill-rule:evenodd;clip-rule:evenodd;stroke-linejoin:round;stroke-miterlimit:1.41421;">
    <g transform="matrix(0.929903,0,0,0.929903,17.9462,17.9888)">
        <path d="M83.4,256.1C83.4,231.1 88.8,207.3 98.4,185.9L180.7,411.4C123.1,383.4 83.4,324.3 83.4,256.1ZM278.3,427.3C271,428.2 263.5,428.7 255.9,428.7C239,428.7 222.7,426.2 207.3,421.6L226.1,366.6L226.2,366.6L258.9,271.1L312,416.5C312.4,417.3 312.9,418.1 313.3,418.8C302.1,422.8 290.4,425.6 278.3,427.3ZM279.8,175.1C290.2,174.6 299.5,173.5 299.5,173.5C308.9,172.5 307.7,158.7 298.4,159.3C298.4,159.3 270.4,161.5 252.4,161.5C235.5,161.5 206.9,159.3 206.9,159.3C197.7,158.7 196.5,173 205.9,173.5C205.9,173.5 214.6,174.6 224,175.1L250.9,248.8L213.1,362.1L150.2,175.1C160.7,174.6 170,173.5 170,173.5C179.2,172.5 178.2,158.7 168.9,159.3C168.9,159.3 141,161.5 122.9,161.5C119.6,161.5 115.8,161.4 111.8,161.3C142.6,114.5 195.7,83.6 255.9,83.6C300.9,83.6 341.8,100.8 372.5,128.8C371.7,128.8 371,128.7 370.2,128.7C353.2,128.7 341.2,143.5 341.2,159.4C341.2,173.6 349.4,185.6 358.1,199.8C364.7,211.3 372.4,226.1 372.4,247.4C372.4,262.2 368,280.8 359.3,303.1L342,360.7L279.8,175.1ZM342.7,405.3L356.4,365.6L395.4,252.8C405.3,228.2 408.5,208.5 408.5,191C408.5,184.7 408.1,178.7 407.4,173.2C420.9,197.8 428.6,226 428.6,256.1C428.6,264.1 428.1,271.9 427.1,279.6C419.7,333.3 387.6,379.2 342.7,405.3Z" style="fill:white;fill-rule:nonzero;"/>
    </g>
</svg>
